<svg id="visual" viewBox="0 0 900 600" width="900" height="600" xmlns="http://www.w3.org/2000/svg" xmlns:xlink="http://www.w3.org/1999/xlink" version="1.1"><path d="M0 163L82 211L164 193L245 97L327 199L409 115L491 121L573 103L655 217L736 127L818 109L900 151L900 0L818 0L736 0L655 0L573 0L491 0L409 0L327 0L245 0L164 0L82 0L0 0Z" fill="#e2e6e8"></path><path d="M0 247L82 301L164 283L245 139L327 253L409 163L491 157L573 157L655 289L736 193L818 175L900 253L900 149L818 107L736 125L655 215L573 101L491 119L409 113L327 197L245 95L164 191L82 209L0 161Z" fill="#cddee3"></path><path d="M0 295L82 343L164 343L245 199L327 379L409 223L491 289L573 235L655 409L736 301L818 235L900 355L900 251L818 173L736 191L655 287L573 155L491 155L409 161L327 251L245 137L164 281L82 299L0 245Z" fill="#b7d6dc"></path><path d="M0 511L82 487L164 463L245 439L327 553L409 505L491 469L573 511L655 547L736 517L818 463L900 553L900 353L818 233L736 299L655 407L573 233L491 287L409 221L327 377L245 197L164 341L82 341L0 293Z" fill="#a0ced2"></path><path d="M0 601L82 601L164 601L245 601L327 601L409 601L491 601L573 601L655 601L736 601L818 601L900 601L900 551L818 461L736 515L655 545L573 509L491 467L409 503L327 551L245 437L164 461L82 485L0 509Z" fill="#89c6c6"></path></svg>